<svg xmlns="http://www.w3.org/2000/svg" viewBox="0 0 24 24" fill="none">
  <path d="M23.546 10.93L13.067.452c-.604-.603-1.582-.603-2.188 0L8.708 2.627l2.76 2.76c.645-.216 1.379-.07 1.889.44.516.515.658 1.258.438 1.9l2.658 2.66c.643-.22 1.387-.078 1.9.435.721.72.721 1.884 0 2.604-.719.719-1.881.719-2.6 0-.539-.541-.674-1.337-.404-1.996L12.86 8.955v6.525c.176.086.342.203.488.348.713.721.713 1.883 0 2.6-.719.721-1.889.721-2.609 0-.719-.719-.719-1.879 0-2.598.182-.18.387-.341.605-.473V8.835c-.217-.132-.423-.293-.605-.473-.569-.57-1.558-.57-2.128 0-.57.57-.57 1.559 0 2.128.18.18.341.385.473.603H5.432c.132-.217.293-.422.473-.602.569-.57.569-1.558 0-2.128-.57-.57-1.559-.57-2.128 0-.18.18-.341.385-.473.603-.217.132-.423.293-.605.473-.719.719-.719 1.879 0 2.598.182.18.388.341.605.473v6.525c-.217.132-.423.293-.605.473-.719.719-.719 1.879 0 2.598.72.721 1.89.721 2.609 0 .713-.717.713-1.879 0-2.6a1.89 1.89 0 0 0-.488-.348V9.385c.146-.145.312-.262.488-.348l2.66-2.66c-.22-.642-.078-1.385.435-1.9.515-.51 1.244-.656 1.889-.44l2.76-2.76 2.171 2.172c.604.603 1.582.603 2.188 0l10.479-10.478c.604-.603.604-1.582 0-2.188z" fill="#F05032"/>
</svg>


