<svg xmlns="http://www.w3.org/2000/svg" viewBox="0 0 24 24" fill="none">
  <path d="M0 0h24v24H0V0zm22.034 18.276c-.175-1.095-.888-2.015-3.003-2.873-.736-.345-1.554-.585-1.797-1.14-.091-.33-.105-.51-.046-.705.15-.646.915-.84 1.515-.66.39.12.75.42.976.9 1.034-.676 1.034-.676 1.755-1.125-.27-.42-.404-.601-.586-.78-.376-.352-.846-.528-1.406-.528-.53 0-.955.276-1.245.69-.42.69-.63 1.815-.54 2.58.06.39.195.705.42.975.225.27.495.465.825.645.39.21.825.39 1.125.66.27.27.39.57.39.96 0 .63-.315.975-.9 1.11-.66.15-1.455-.09-1.965-.81l-1.68 1.125c.39.66 1.035 1.14 1.86 1.38 1.065.36 2.28.21 3.09-.57.81-.75 1.155-1.875 1.065-2.97zm-8.955-3.105c0-.54-.09-1.005-.225-1.38-.12-.39-.315-.705-.57-.96-.24-.255-.54-.42-.885-.51-.345-.09-.75-.12-1.23-.12H6.765v1.5h2.25c.27 0 .495.015.66.09.18.075.315.21.405.39.09.195.135.45.135.765v.51H6.3v1.5h3.45c.39 0 .705.045.945.135.255.09.45.225.585.405.135.18.21.42.21.72 0 .39-.09.675-.27.855-.18.18-.435.27-.765.27-.39 0-.705-.105-.945-.315-.24-.21-.36-.525-.36-.945h-1.5c0 .54.15.975.45 1.305.3.33.72.495 1.26.495.54 0 .975-.15 1.305-.45.33-.3.495-.72.495-1.26v-.75c0-.39-.06-.705-.18-.945z" fill="#F7DF1E"/>
</svg>


