<svg xmlns="http://www.w3.org/2000/svg" viewBox="0 0 24 24" fill="none">
  <path d="M12 6c-2.67 0-4.33 1.33-5 4 1-1.33 2.17-1.83 3.5-1.5.76.19 1.31.74 1.91 1.35.98 1 2.12 2.15 4.59 2.15 2.67 0 4.33-1.33 5-4-1 1.33-2.17 1.83-3.5 1.5-.76-.19-1.31-.74-1.91-1.35C15.61 7.15 14.48 6 12 6zm-5 6c-2.67 0-4.33 1.33-5 4 1-1.33 2.17-1.83 3.5-1.5.76.19 1.31.74 1.91 1.35.98 1 2.12 2.15 4.59 2.15 2.67 0 4.33-1.33 5-4-1 1.33-2.17 1.83-3.5 1.5-.76-.19-1.31-.74-1.91-1.35C10.61 13.15 9.48 12 7 12z" fill="#06B6D4"/>
</svg>


